<svg width="64" height="63" viewBox="0 0 64 63" fill="none" xmlns="http://www.w3.org/2000/svg">
<path d="M34.9219 18.806C34.2344 18.1868 33.3787 17.7852 32.4631 17.6521C31.5474 17.5191 30.6129 17.6605 29.7776 18.0585C28.9423 18.4566 28.2437 19.0933 27.7703 19.8883C27.2968 20.6833 27.0697 21.6008 27.1176 22.5248C27.1656 23.4488 27.4864 24.3379 28.0396 25.0796C28.5927 25.8214 29.3534 26.3824 30.2254 26.6919C31.0974 27.0013 32.0415 27.0453 32.9385 26.8182C33.8355 26.5912 34.645 26.1032 35.2647 25.4161C36.0952 24.4938 36.5256 23.2796 36.4613 22.0401C36.397 20.8007 35.8433 19.6375 34.9219 18.806Z" fill="url(#paint0_radial_479_275)"/>
<path d="M18.3867 4.48026C15.3014 6.80615 12.8717 9.89196 11.3344 13.4367C13.1858 13.8931 18.7289 15.697 21.272 22.5634C22.037 22.3141 23.6858 21.3532 24.8299 17.643C26.364 12.6757 29.2742 7.89802 33.0482 6.29378C29.2847 2.57037 24.3261 1.69362 18.3867 4.48026Z" fill="url(#paint1_linear_479_275)"/>
<path d="M48.9459 8.07222L48.947 8.07093C45.2924 3.65692 40.0776 0.820886 34.3862 0.152243C28.6948 -0.5164 22.9646 1.03377 18.3865 4.48059C26.632 0.611901 32.9869 3.80335 36.8784 11.87C43.0771 12.9818 47.287 9.89745 48.9459 8.07222Z" fill="url(#paint2_linear_479_275)"/>
<path d="M23.0757 42.7839C26.6323 44.2931 30.5194 44.8546 34.3577 44.4137C33.8273 42.582 32.6179 36.8792 37.2922 31.2434C36.6939 30.7055 35.0373 29.7579 31.2525 30.6222C26.184 31.7771 20.5916 31.6454 17.3154 29.1788C15.9728 34.3001 17.6929 39.0331 23.0757 42.7839Z" fill="url(#paint3_linear_479_275)"/>
<path d="M10.9064 14.5206L10.9048 14.5204C8.90966 19.8927 9.06116 25.8271 11.3278 31.0906C13.5944 36.3541 17.8018 40.5419 23.0759 42.7839C15.6031 37.5768 15.1893 30.4773 20.2289 23.0734C18.0923 17.1488 13.3164 15.0449 10.9064 14.5206Z" fill="url(#paint4_linear_479_275)"/>
<path d="M53.9001 19.571C53.4287 15.736 51.9714 12.0887 49.6704 8.98474C48.3496 10.36 44.0158 14.2589 36.7983 13.0284C36.6316 13.8155 36.6394 15.7241 39.2802 18.57C42.8146 22.3823 45.4967 27.2917 44.9989 31.3625C50.105 29.9647 53.3435 26.1084 53.9001 19.571Z" fill="url(#paint5_linear_479_275)"/>
<path d="M35.5103 44.2429L35.5109 44.2444C41.1608 43.2857 46.2242 40.187 49.6488 35.5922C53.0735 30.9973 54.596 25.2596 53.9002 19.5713C53.1275 28.647 47.1865 32.5552 38.2553 31.8923C34.1932 36.7051 34.7592 41.8935 35.5103 44.2429Z" fill="url(#paint6_linear_479_275)"/>
<path d="M1.91269 62.8466H0V53.9211H3.07288C3.58426 53.9151 4.09427 53.9751 4.5903 54.0996C5.00685 54.2025 5.39898 54.3867 5.74417 54.6416C6.06356 54.8846 6.31583 55.2049 6.47725 55.5724C6.65582 55.9934 6.74281 56.4475 6.73246 56.9047C6.74074 57.3645 6.65163 57.8208 6.47099 58.2437C6.30103 58.6292 6.04082 58.9681 5.71232 59.2318C5.35288 59.5137 4.94122 59.7217 4.50104 59.8439C3.97832 59.9904 3.43731 60.0612 2.8945 60.0542H1.91269V62.8466ZM1.87436 58.3711H2.92C3.4979 58.3711 3.94843 58.2584 4.27158 58.0332C4.59448 57.8081 4.75597 57.4575 4.75604 56.9813C4.75604 56.4797 4.59874 56.1249 4.28415 55.9167C3.96971 55.7084 3.5192 55.6043 2.93262 55.6042H1.87436V58.3711Z" fill="#3A3A39"/>
<path d="M12.5211 62.9996C11.9192 63.0071 11.3209 62.9056 10.7551 62.7C10.2383 62.5096 9.77014 62.2069 9.38441 61.8137C8.98821 61.4007 8.68592 60.907 8.49822 60.3664C8.27956 59.7288 8.17389 59.0578 8.18596 58.3838C8.17362 57.7087 8.28378 57.0369 8.5111 56.401C8.70656 55.8613 9.01271 55.3683 9.40992 54.9539C9.79243 54.5628 10.256 54.2603 10.768 54.0677C11.3121 53.8641 11.8891 53.7625 12.4701 53.768C13.0988 53.7575 13.7239 53.8656 14.3126 54.0869C14.83 54.2844 15.2963 54.5959 15.6768 54.9983C16.0601 55.4167 16.3493 55.9124 16.5249 56.452C16.728 57.0755 16.827 57.7282 16.818 58.3838C16.8328 59.0841 16.7227 59.7814 16.493 60.443C16.3019 60.9846 15.9927 61.4767 15.5877 61.8838C15.201 62.2621 14.735 62.5496 14.2234 62.7254C13.6755 62.9123 13.0999 63.0049 12.5211 62.9996ZM12.5849 61.3164C12.8916 61.3197 13.1956 61.2589 13.4774 61.1378C13.7518 61.0169 13.9926 60.8309 14.1787 60.5959C14.3886 60.325 14.5424 60.0152 14.6314 59.6844C14.7451 59.2604 14.7987 58.8227 14.7908 58.3838C14.7908 57.3722 14.5783 56.6305 14.1533 56.1587C13.9415 55.9248 13.6811 55.7403 13.3902 55.618C13.0994 55.4958 12.7853 55.4388 12.4701 55.4511C12.1655 55.4491 11.8639 55.5098 11.5839 55.6296C11.3044 55.751 11.0576 55.9367 10.8636 56.1716C10.6444 56.4425 10.4818 56.7547 10.3854 57.0896C10.2637 57.51 10.2056 57.9462 10.2132 58.3838C10.2042 58.8245 10.2666 59.2637 10.398 59.6844C10.5038 60.0186 10.675 60.3284 10.9016 60.5959C11.1067 60.8328 11.3643 61.0184 11.6539 61.1379C11.9495 61.2582 12.2658 61.3188 12.5849 61.3164V61.3164Z" fill="#3A3A39"/>
<path d="M25.3864 62.4929C25.2672 62.5522 25.1375 62.6113 24.9976 62.6702C24.8358 62.7366 24.6697 62.7916 24.5002 62.8349C24.2824 62.8903 24.0609 62.9306 23.8374 62.9553C23.5515 62.9865 23.2641 63.0013 22.9765 62.9995C22.346 63.0074 21.7187 62.9082 21.1213 62.7062C20.5889 62.5254 20.1018 62.2318 19.6933 61.8454C19.2865 61.4498 18.973 60.9685 18.7753 60.4366C18.5482 59.8162 18.4379 59.1591 18.4501 58.4985C18.438 57.8067 18.5482 57.1183 18.7753 56.4648C18.9674 55.9064 19.286 55.4001 19.7063 54.9853C20.1266 54.5706 20.6371 54.2587 21.1979 54.074C21.8327 53.8616 22.4988 53.7581 23.168 53.768C23.607 53.7635 24.0451 53.8063 24.4749 53.8954C24.7968 53.9599 25.1109 54.0582 25.4121 54.1887L24.9911 55.7952C24.7215 55.7024 24.4442 55.6342 24.1623 55.5912C23.922 55.5522 23.679 55.531 23.4355 55.5276C23.0279 55.5227 22.6219 55.5787 22.2309 55.6937C21.886 55.7952 21.568 55.9719 21.2998 56.2112C21.0316 56.4586 20.8242 56.7648 20.6941 57.1057C20.5412 57.5162 20.4677 57.9521 20.4776 58.39C20.4776 59.3358 20.7433 60.0472 21.2746 60.5242C21.8055 61.0013 22.5216 61.2399 23.4228 61.2399C23.6714 61.2352 23.9189 61.2075 24.1623 61.157C24.4518 61.1017 24.7342 61.014 25.0041 60.8956L25.3864 62.4929Z" fill="#3A3A39"/>
<path d="M32.654 60.8954H29.224L28.5865 62.8462H26.6995L29.747 53.9207H32.2332L35.2425 62.8462H33.2915L32.654 60.8954ZM29.747 59.2123H32.1313L30.9455 55.4635L29.747 59.2123Z" fill="#3A3A39"/>
<path d="M39.5908 62.8462H37.6781V55.6802H35.1405V53.9207H42.1153V55.6802H39.5908V62.8462Z" fill="#3A3A39"/>
<path d="M47.343 62.9996C46.7411 63.007 46.1428 62.9055 45.577 62.6999C45.0602 62.5096 44.5921 62.2069 44.2065 61.8137C43.8102 61.4008 43.5079 60.9071 43.3203 60.3664C43.1015 59.7288 42.9956 59.0579 43.0077 58.3838C42.9954 57.7087 43.1056 57.0369 43.333 56.401C43.5286 55.8613 43.8347 55.3684 44.2318 54.9539C44.6143 54.5628 45.0778 54.2603 45.5897 54.0677C46.134 53.8641 46.711 53.7626 47.292 53.768C47.9208 53.7575 48.5459 53.8657 49.1346 54.0869C49.652 54.2844 50.1183 54.5959 50.4989 54.9983C50.882 55.4168 51.1711 55.9125 51.3468 56.452C51.55 57.0754 51.6491 57.7281 51.64 58.3838C51.6546 59.0841 51.5446 59.7813 51.315 60.443C51.124 60.9846 50.8147 61.4768 50.4096 61.8838C50.0228 62.262 49.5568 62.5495 49.0453 62.7254C48.4974 62.9123 47.9218 63.0049 47.343 62.9996ZM47.4069 61.3164C47.7135 61.3197 48.0175 61.2589 48.2993 61.1378C48.5737 61.0171 48.8144 60.831 49.0004 60.5959C49.2103 60.3251 49.3643 60.0152 49.4533 59.6844C49.567 59.2605 49.6207 58.8227 49.6127 58.3838C49.6127 57.3722 49.4002 56.6305 48.9752 56.1587C48.7634 55.9248 48.503 55.7403 48.2122 55.618C47.9213 55.4958 47.6073 55.4388 47.292 55.4511C46.9875 55.4491 46.6858 55.5099 46.4057 55.6296C46.1263 55.751 45.8795 55.9367 45.6854 56.1716C45.4661 56.4424 45.3035 56.7546 45.2073 57.0896C45.0855 57.5099 45.0275 57.9462 45.0353 58.3838C45.0262 58.8245 45.0886 59.2637 45.22 59.6844C45.3258 60.0186 45.497 60.3285 45.7238 60.5959C45.9286 60.8329 46.1862 61.0186 46.4759 61.1379C46.7714 61.2582 47.0878 61.3189 47.4069 61.3163V61.3164Z" fill="#3A3A39"/>
<path d="M63.5749 62.8462H61.6496L61.1649 56.917L59.3289 62.8462H57.5055L55.6948 56.9427L55.2104 62.8462H53.2852L54.1775 53.9207H56.4599L58.4745 60.6531L60.4637 53.9207H62.6695L63.5749 62.8462Z" fill="#3A3A39"/>
<defs>
<radialGradient id="paint0_radial_479_275" cx="0" cy="0" r="1" gradientUnits="userSpaceOnUse" gradientTransform="translate(30.288 19.6734) scale(6.58679 6.58679)">
<stop stop-color="#4896D2"/>
<stop offset="1" stop-color="#1A2165"/>
</radialGradient>
<linearGradient id="paint1_linear_479_275" x1="15.9882" y1="19.132" x2="27.066" y2="2.07365" gradientUnits="userSpaceOnUse">
<stop stop-color="#4896D2"/>
<stop offset="1" stop-color="#1A2165"/>
</linearGradient>
<linearGradient id="paint2_linear_479_275" x1="20.4098" y1="-0.527225" x2="47.9288" y2="10.5911" gradientUnits="userSpaceOnUse">
<stop stop-color="#4896D2"/>
<stop offset="1" stop-color="#1A2165"/>
</linearGradient>
<linearGradient id="paint3_linear_479_275" x1="36.9578" y1="37.5491" x2="16.6467" y2="36.4849" gradientUnits="userSpaceOnUse">
<stop stop-color="#4896D2"/>
<stop offset="1" stop-color="#1A2165"/>
</linearGradient>
<linearGradient id="paint4_linear_479_275" x1="17.7225" y1="43.5501" x2="13.591" y2="14.1559" gradientUnits="userSpaceOnUse">
<stop stop-color="#4896D2"/>
<stop offset="1" stop-color="#1A2165"/>
</linearGradient>
<linearGradient id="paint5_linear_479_275" x1="42.421" y1="10.1804" x2="51.6551" y2="28.3038" gradientUnits="userSpaceOnUse">
<stop stop-color="#4896D2"/>
<stop offset="1" stop-color="#1A2165"/>
</linearGradient>
<linearGradient id="paint6_linear_479_275" x1="57.2359" y1="23.8402" x2="33.8461" y2="42.1138" gradientUnits="userSpaceOnUse">
<stop stop-color="#4896D2"/>
<stop offset="1" stop-color="#1A2165"/>
</linearGradient>
</defs>
</svg>
